<svg version="1.1" id="Layer_1" xmlns="http://www.w3.org/2000/svg" xmlns:xlink="http://www.w3.org/1999/xlink" x="0px" y="0px"
	 width="100%" viewBox="0 0 1024 1024" enable-background="new 0 0 1024 1024" xml:space="preserve">
<path fill="#000000" opacity="1.000000" stroke="none" 
	d="
M369.667419,436.506226 
	C366.312836,434.896667 366.323151,433.011688 368.658020,430.992584 
	C370.907440,429.047394 373.285339,427.250824 376.033264,425.046875 
	C370.307648,422.991974 363.814575,423.257751 359.987274,417.724609 
	C362.203156,413.429657 367.141174,413.118195 370.550446,410.268799 
	C364.415741,407.735382 357.839661,406.282593 354.874908,399.500916 
	C358.812805,395.565033 364.141479,396.323212 368.985413,394.267334 
	C364.126801,390.586700 358.652283,388.297729 355.554352,383.096436 
	C352.685822,378.280304 352.943909,377.481232 358.435211,376.321899 
	C362.088257,375.550629 365.688416,375.912323 370.900879,376.865875 
	C363.814453,369.613525 356.590057,363.974335 355.638336,353.808258 
	C365.407135,353.079651 373.241669,356.716980 380.837463,361.863220 
	C377.773682,356.105774 373.467316,351.731934 366.608643,347.169769 
	C355.792725,339.975281 344.654663,333.194183 335.136932,324.247284 
	C325.280975,314.982391 317.537659,304.270752 313.632385,291.106293 
	C313.117706,289.371399 312.234772,287.676025 313.131836,285.797974 
	C314.529633,285.024750 315.388031,286.100708 316.109344,286.850952 
	C333.787506,305.237946 356.264740,316.289825 378.410095,327.914276 
	C391.075836,334.562714 402.690613,342.605286 409.590057,355.795624 
	C416.275787,368.577454 416.868744,381.361176 410.282928,394.507843 
	C402.894348,409.257080 407.468506,424.802094 420.804047,432.205109 
	C423.985443,433.971252 426.587280,434.287506 429.145172,431.170624 
	C431.300385,428.544434 434.362915,427.037994 437.420410,425.698456 
	C444.659607,422.526794 452.634674,421.228699 459.156586,416.122131 
	C462.000275,413.895538 466.179626,414.424591 469.865570,414.948273 
	C477.576294,416.043762 482.793365,413.005737 485.209686,405.673828 
	C486.118286,402.916901 487.498932,400.153046 486.894836,396.675751 
	C480.456116,397.785492 476.529846,395.339325 475.601959,388.768707 
	C475.382263,387.212952 474.010376,386.867615 472.719299,386.384125 
	C464.670410,383.369659 461.523438,376.949951 464.903534,369.421692 
	C466.356476,366.185730 465.925781,364.598450 463.167450,362.436188 
	C457.090912,357.672913 456.252045,350.147430 461.172882,344.351654 
	C463.671967,341.408203 464.019287,338.727356 463.015717,335.213287 
	C459.632141,323.365326 462.002838,317.050751 472.353760,310.155487 
	C474.059204,309.019409 474.738831,307.498627 475.427307,305.804443 
	C480.525482,293.258362 492.051483,286.705444 505.474670,289.030640 
	C508.314056,289.522461 510.591431,289.221039 513.052368,287.822906 
	C520.681519,283.488678 528.114014,284.316650 535.000427,289.466309 
	C537.131592,291.059967 538.826721,291.459473 541.315430,290.397949 
	C544.824097,288.901459 548.582520,288.132355 552.341248,287.325745 
	C556.429626,286.448395 558.160889,288.005310 558.232239,291.692871 
	C558.316650,296.054688 559.676819,298.321198 564.460815,299.542999 
	C572.846497,301.684753 578.275818,319.329956 573.260559,326.397705 
	C572.596375,327.333740 571.798401,328.577301 570.836914,328.833923 
	C565.150757,330.351379 566.669434,334.454041 566.007446,338.726471 
	C564.502625,348.438721 567.669250,356.655792 571.260376,365.062317 
	C572.953674,369.026245 572.258728,371.896942 567.404968,372.664215 
	C565.031555,373.039337 564.489746,374.649109 564.172913,376.935699 
	C563.635925,380.811249 563.450806,384.871582 560.913757,388.239838 
	C559.824951,389.685425 560.276794,391.450592 560.457275,393.095978 
	C561.117859,399.117798 558.371460,402.613678 552.396790,403.197449 
	C549.218811,403.507965 546.082947,403.054871 542.959351,402.465637 
	C538.752441,401.671997 536.252686,402.819702 536.191589,407.729706 
	C536.135803,412.206543 535.379028,416.670380 535.127197,421.150940 
	C535.000854,423.398376 535.418518,425.894165 538.417786,425.711212 
	C547.386047,425.164215 554.595459,429.214233 561.200745,434.450012 
	C568.132935,439.944916 576.490723,443.205872 583.084778,449.263885 
	C589.520691,455.176666 593.734070,462.435944 597.426575,470.112885 
	C608.755066,493.665497 618.831970,517.879333 634.117859,539.329651 
	C635.638367,541.463257 635.335022,543.420532 633.866150,545.281738 
	C630.772278,549.202148 627.788879,553.241699 624.364014,556.857178 
	C622.260620,559.077698 621.530945,561.161743 622.429077,564.005310 
	C623.430420,567.175476 624.371582,570.367859 625.225647,573.580688 
	C627.113464,580.682373 630.658264,586.288635 636.630249,591.106934 
	C648.044189,600.316101 657.029480,612.125122 667.658203,622.229187 
	C673.469971,627.754028 679.540466,632.893433 686.577087,636.873657 
	C690.573730,639.134277 694.173889,639.551025 697.326050,635.881897 
	C703.624695,628.550354 710.913147,627.656738 719.636536,631.238464 
	C722.797913,632.536560 724.505554,634.226746 725.698975,637.151306 
	C726.786682,639.816895 727.193115,643.007141 730.337891,644.606018 
	C729.666138,633.434875 726.372803,629.379089 716.364746,627.055603 
	C713.961792,626.497742 711.459229,626.112122 710.426392,623.191956 
	C709.763794,621.318726 707.986938,620.626465 706.083984,620.247131 
	C703.475159,619.727234 700.913147,618.964050 698.298279,618.483704 
	C688.639771,616.709473 688.634705,616.737183 682.665527,624.679871 
	C677.704956,621.260925 674.137939,616.544312 670.615051,611.812561 
	C670.200928,611.256226 670.038879,610.038879 670.364197,609.479309 
	C673.225647,604.556885 677.039978,600.392822 681.567566,597.008545 
	C683.256958,595.745850 683.984009,597.745422 684.752197,599.056641 
	C688.563782,605.562500 698.990234,607.853943 705.332947,603.588501 
	C707.947815,601.830017 708.945374,599.254089 708.320740,596.213257 
	C707.850525,593.924316 707.283752,591.155151 705.294861,590.061035 
	C697.513977,585.780762 699.829712,580.982971 703.217590,574.921509 
	C706.997620,568.158325 707.466919,560.226379 707.582886,552.573120 
	C708.130737,516.418457 708.107300,480.252014 708.981873,444.106598 
	C709.687439,414.947845 709.054260,385.771362 710.159058,356.641541 
	C710.777344,340.340363 709.462402,323.956879 711.736389,307.743469 
	C713.650146,294.098358 716.615601,280.669250 721.954346,267.885803 
	C724.497070,268.322662 724.571350,270.237915 725.091492,271.687073 
	C732.023376,290.997437 734.961060,310.955322 735.108704,331.435699 
	C735.416260,374.086700 735.603149,416.742767 736.463196,459.384155 
	C737.000916,486.043213 736.924622,512.704529 737.527710,539.353882 
	C737.726135,548.122314 737.475464,557.013306 739.311523,565.717712 
	C740.347595,570.629395 741.548340,575.481384 744.387939,579.706787 
	C746.341431,582.613708 747.065063,585.078979 743.091492,586.898865 
	C742.224792,587.295776 741.539429,588.147400 740.852478,588.867615 
	C737.905396,591.957336 736.248474,595.647705 737.604065,599.810059 
	C738.983093,604.044373 742.958557,604.983032 746.852356,605.487366 
	C753.033447,606.287964 757.590942,604.102600 760.409668,598.676575 
	C761.608276,596.369202 762.887573,596.144348 764.687500,597.492126 
	C768.593811,600.417114 771.680969,604.135010 774.477478,608.097778 
	C775.307617,609.273987 775.510437,610.679016 774.756714,611.887451 
	C771.598755,616.950745 768.068848,621.676453 762.657715,624.581299 
	C756.767639,616.659058 753.241516,616.255066 740.100098,619.860596 
	C732.297119,622.001465 736.229858,628.569641 733.525818,632.924866 
	C736.052673,633.715576 737.972412,634.182678 739.787659,634.910461 
	C744.515198,636.805542 746.168884,640.665894 744.381531,645.368591 
	C744.087830,646.141357 743.258972,647.239441 743.515076,647.613281 
	C747.430603,653.328613 743.341370,658.515564 742.083252,663.599792 
	C740.765198,668.926147 740.150940,675.119751 734.495361,678.445557 
	C733.068726,679.284485 732.473999,680.513916 732.685974,682.225159 
	C733.434937,688.270325 731.854248,694.135010 730.924927,700.006409 
	C730.486572,702.775696 730.742920,704.622192 732.647827,706.724609 
	C738.389954,713.062134 738.231323,721.486572 732.544373,726.858032 
	C727.224609,731.882568 717.792969,731.941467 712.443970,726.983582 
	C706.754822,721.710510 706.479065,713.213501 712.095032,706.847656 
	C713.850769,704.857483 714.538208,703.079590 713.700073,700.588562 
	C712.925354,698.286377 712.571289,696.004028 715.813660,695.261963 
	C710.873901,687.492981 710.973145,686.474731 716.957031,685.392334 
	C713.610962,681.268616 710.672913,677.485535 704.753784,677.115051 
	C701.560791,676.915161 698.176147,675.585632 695.379944,673.922058 
	C677.878052,663.509460 658.778381,656.261292 641.078369,646.257568 
	C628.724792,639.275635 616.694763,631.891724 606.580017,621.728638 
	C602.959106,618.090454 600.760498,613.791199 598.536743,609.264587 
	C593.330994,598.668152 591.135193,588.647827 596.020996,576.740173 
	C599.748474,567.655701 596.560486,557.334595 594.687012,547.696716 
	C591.672546,532.188843 589.548645,516.509644 585.748535,501.153625 
	C585.560486,500.393616 585.282776,499.655762 584.149048,499.014954 
	C584.630981,508.009369 584.916809,517.019592 585.640381,525.994568 
	C586.748718,539.742432 587.363464,553.515930 589.972351,567.154785 
	C591.635864,575.851196 584.621887,586.710999 576.492859,590.335022 
	C573.811768,591.530334 571.067810,592.584595 567.505371,594.052368 
	C569.901123,594.780518 571.399109,595.460632 572.960754,595.672791 
	C581.304993,596.806458 586.050598,602.089417 589.513184,609.261902 
	C595.614929,621.901062 597.460510,635.673401 600.153442,649.162842 
	C606.142456,679.163269 611.597046,709.270203 617.271545,739.333435 
	C618.347839,745.035278 619.171448,745.489746 624.539795,742.917664 
	C636.722046,737.080811 648.487427,730.494812 659.859741,723.195557 
	C670.847900,716.142944 679.527405,717.107849 689.068542,726.251465 
	C692.434204,729.476929 695.661926,732.882751 699.276733,735.805359 
	C714.732544,748.300720 733.684509,747.039917 747.252258,732.599976 
	C789.962219,687.144348 817.713501,633.969238 829.364929,572.586609 
	C839.175476,520.901672 836.164917,469.901550 820.649353,419.647491 
	C819.085388,414.581909 818.495178,409.746796 820.682007,404.634155 
	C822.215515,401.049072 823.598389,397.218018 822.572632,393.147583 
	C819.064270,391.682861 816.082214,395.685394 811.606445,392.812683 
	C818.961914,386.342468 825.267639,379.321228 831.283020,370.355591 
	C853.593262,421.625977 864.738220,473.748108 861.935059,528.258789 
	C857.074585,622.778748 820.330444,703.370178 750.834412,767.545959 
	C611.986023,895.764771 407.391724,894.644775 269.977631,761.337646 
	C208.043167,701.254272 173.442505,627.328735 165.860901,541.312256 
	C160.677261,482.501648 171.446793,426.220337 195.158325,371.976227 
	C197.981949,373.996429 213.664108,391.636353 214.625061,393.654816 
	C211.277084,395.534393 208.260300,392.273712 204.661407,393.132324 
	C203.221390,397.619720 205.414612,401.758667 206.908295,405.768005 
	C208.407669,409.792603 208.264175,413.403900 206.987762,417.388977 
	C195.235367,454.081360 190.259079,491.781769 192.494614,530.161072 
	C195.719147,585.518921 211.866043,636.943176 241.734879,683.924622 
	C252.234055,700.439026 264.073578,715.861206 277.282532,730.246155 
	C283.467377,736.981628 290.664185,742.121521 300.002045,743.868958 
	C311.504089,746.021301 320.918915,741.857422 329.382172,734.720642 
	C332.683197,731.937134 335.469086,728.552246 338.653595,725.619324 
	C345.358337,719.444275 352.860077,716.247131 361.863312,720.415283 
	C364.672943,721.715942 365.255280,719.579834 366.462646,718.085205 
	C376.967743,705.080505 380.156677,689.739502 381.821350,673.538269 
	C384.266266,649.743347 385.204834,625.743591 390.237091,602.261353 
	C391.776245,595.079041 394.486084,588.195557 398.053223,581.783752 
	C402.135071,574.446777 403.291199,566.414368 404.605896,558.372009 
	C405.050171,555.654175 404.124237,553.716064 401.754333,552.031067 
	C396.642883,548.396912 395.356537,544.517090 397.511993,540.733276 
	C399.330750,537.540466 404.049103,536.512939 409.278503,538.559021 
	C417.904083,541.933960 425.022003,547.837585 432.633362,552.905457 
	C433.266785,553.327209 433.874481,553.787476 434.906433,553.953186 
	C424.862823,542.333557 420.458771,528.538330 418.977142,513.759277 
	C418.339264,507.396362 418.870300,500.916321 419.623993,494.212738 
	C426.905029,507.550232 433.771545,520.976807 442.212372,533.680359 
	C440.482544,514.043640 436.223358,494.808899 435.829010,474.904968 
	C443.345093,485.963287 447.483551,498.542542 452.356506,510.856873 
	C451.079865,490.916473 446.324890,471.614777 440.812683,451.200226 
	C445.235138,453.576416 447.270447,456.338867 449.075592,459.267670 
	C459.127502,475.576996 468.932129,492.042999 479.225800,508.197693 
	C487.836304,521.710938 497.826111,534.207092 509.330841,545.419189 
	C510.676300,546.730408 511.855408,548.451904 514.347473,548.820618 
	C493.030701,519.211670 475.171112,488.071594 462.458130,454.017181 
	C474.856384,468.635010 485.674866,484.530945 499.982666,497.480347 
	C496.416107,487.749542 489.923859,479.532318 486.177948,469.660614 
	C507.447052,489.502014 529.354370,508.350525 556.388306,520.191772 
	C526.990662,496.730438 502.144501,468.886047 477.515442,440.033905 
	C480.367462,438.857880 481.743561,440.293488 483.176361,441.102325 
	C487.381744,443.476288 491.599976,445.842346 495.676483,448.427063 
	C509.028931,456.893311 524.350037,459.200348 539.379211,462.236969 
	C543.273376,463.023773 547.639343,462.146881 549.627075,456.973389 
	C546.114563,456.119965 543.262695,458.094147 540.103638,457.683807 
	C532.207336,456.658112 524.974854,453.711243 517.862976,450.505371 
	C506.147522,445.224182 495.090149,438.716431 484.385620,431.600403 
	C481.619812,429.761780 478.696228,428.124451 475.721191,426.643646 
	C468.688843,423.143372 463.724670,424.270782 457.779266,430.798462 
	C463.691833,435.579712 468.769104,441.121887 472.779175,448.573975 
	C469.657532,448.352509 468.180817,446.633179 466.453766,445.623169 
	C462.282013,443.183319 458.214417,440.551849 453.631134,438.927979 
	C444.858276,435.819672 439.832031,437.190887 433.534637,444.108551 
	C425.012299,453.470245 420.674896,465.057739 416.410309,476.613495 
	C408.910278,496.936462 401.370850,517.202881 390.722290,536.185120 
	C386.606964,543.521179 387.788666,549.838989 393.482361,555.834045 
	C395.632416,558.097900 396.130585,560.333862 395.864044,563.467712 
	C394.875549,575.088318 388.863007,581.656738 377.344635,583.214417 
	C373.705933,583.706482 370.199249,585.751099 365.631653,584.461426 
	C369.155579,576.415344 372.463379,568.862671 376.117523,560.519226 
	C361.546722,569.746643 347.359985,577.769287 328.158081,572.368103 
	C342.611389,560.411255 354.465515,547.863647 363.783539,531.677856 
	C342.107452,546.804077 320.721893,557.878540 295.155731,542.009949 
	C311.483276,534.468811 326.694916,525.551453 340.487152,512.008362 
	C313.135254,521.685608 287.725891,523.472229 264.541199,504.274689 
	C284.612305,501.152283 303.761200,495.855377 322.598328,485.526581 
	C310.630585,486.405579 299.899017,487.347046 289.119232,486.355621 
	C268.731750,484.480530 251.553604,476.674713 239.284393,459.681732 
	C238.410675,458.471588 237.672989,457.153839 236.976227,455.831238 
	C236.777466,455.453949 236.945831,454.883209 236.945831,453.621216 
	C258.791077,458.703217 280.445923,457.034882 302.114685,452.897308 
	C293.965881,451.689331 285.751678,450.809784 277.682068,449.203918 
	C261.682404,446.019867 246.581100,440.652740 233.736084,430.038940 
	C226.119293,423.745178 220.514252,416.019562 216.202393,407.249634 
	C215.860611,406.554504 215.830780,405.705963 215.377197,403.689087 
	C240.004944,412.907013 264.647980,417.880493 291.373169,418.575195 
	C289.019745,415.822083 286.973328,415.814026 285.193115,415.324280 
	C265.050690,409.782898 245.432922,402.990051 227.777985,391.464478 
	C215.389252,383.376801 205.366852,373.145691 199.043274,359.604156 
	C198.167435,357.728638 196.889069,355.862335 197.739059,352.557068 
	C219.948395,365.114014 243.333878,373.699921 268.081146,378.502869 
	C254.573883,372.490479 241.168854,366.311005 228.409515,358.853271 
	C207.458344,346.607513 189.462921,331.391052 179.147339,308.710144 
	C176.930435,303.835815 174.654297,298.878815 174.770798,291.714203 
	C202.159134,316.773834 233.237427,333.069214 266.243744,346.119904 
	C261.875244,343.403564 257.497467,340.701965 253.139786,337.968353 
	C234.051575,325.994354 215.398026,313.455872 199.865906,296.870758 
	C185.830872,281.884247 175.231400,264.981689 171.322144,244.523972 
	C170.178909,238.541245 169.044144,232.442871 170.752014,225.635590 
	C197.027740,261.498322 230.345886,289.073242 268.583954,310.938477 
	C258.939728,302.875977 249.270004,294.847595 239.956635,286.394043 
	C217.154312,265.696930 198.522903,242.183975 189.302979,212.223969 
	C184.893387,197.895050 184.328659,183.435699 187.917542,168.865631 
	C188.287674,167.362991 188.397308,165.476196 190.316727,164.802841 
	C191.598816,165.304062 191.911880,166.473343 192.333710,167.538406 
	C204.919205,199.315247 225.446915,225.499786 249.673004,249.098434 
	C266.440643,265.431763 284.964111,279.584503 304.078796,292.997375 
	C306.481354,294.683258 308.311279,296.588806 309.577271,299.248260 
	C312.791046,305.999237 317.077698,312.128052 321.031433,318.788910 
	C310.616913,315.612915 301.406250,309.823853 291.134491,305.571930 
	C290.875214,322.991852 298.467224,336.393097 310.381866,347.972351 
	C309.958069,348.335480 309.534271,348.698608 309.110474,349.061737 
	C302.790833,348.538422 296.471161,348.015076 289.204102,347.413269 
	C291.352020,355.074890 293.869324,361.561981 298.181580,367.394531 
	C302.447357,373.164246 308.171051,377.423279 314.056488,382.199463 
	C309.569946,384.883240 305.246857,384.621674 301.351471,385.863739 
	C297.444733,387.109406 296.792450,388.682983 298.812927,392.328430 
	C303.886871,401.483185 311.752563,407.386353 320.688965,412.192505 
	C321.565491,412.663940 322.473602,413.078522 323.335052,413.575043 
	C323.599457,413.727478 323.757233,414.064972 324.483429,414.953369 
	C320.603455,417.149963 316.789734,419.244049 313.039886,421.446899 
	C307.076721,424.949921 306.930603,426.095795 311.879913,430.912323 
	C317.348663,436.234375 323.601379,440.204712 331.168396,441.882080 
	C332.589722,442.197174 333.941772,442.824860 336.021240,443.551208 
	C332.346039,447.301147 329.111633,450.756958 325.704590,454.033325 
	C322.397278,457.213684 322.857758,459.496155 326.778717,461.737122 
	C332.481842,464.996613 338.252930,467.840515 345.031342,467.791382 
	C346.184875,467.783020 347.365295,467.870819 348.560333,469.050049 
	C347.405640,473.142487 343.934967,476.022034 342.153229,479.858612 
	C339.857727,484.801422 340.057739,485.642059 345.197205,487.438232 
	C350.611694,489.330475 356.138458,490.335663 361.885986,489.364075 
	C363.028717,489.170837 364.179016,488.814514 365.506134,490.073822 
	C364.381195,493.145050 363.252686,496.389709 362.006348,499.588501 
	C360.346710,503.847900 362.278137,505.322693 366.299286,505.708374 
	C371.967163,506.252045 377.437836,504.932068 382.884613,503.706879 
	C383.906830,506.623566 383.182281,508.879486 382.834198,511.144165 
	C382.588226,512.744690 381.744324,514.780334 384.015869,515.350037 
	C386.194275,515.896362 387.292847,514.192749 387.838501,512.275269 
	C388.748932,509.075653 389.532806,505.837708 390.523590,502.663879 
	C391.662201,499.016602 392.967926,495.421539 394.459991,491.044006 
	C390.853760,493.104095 387.849182,494.975067 384.706818,496.575623 
	C380.962463,498.482849 376.886353,499.340363 372.726929,499.863068 
	C369.043274,500.325958 368.233032,498.982513 369.532379,495.589996 
	C371.628265,490.117981 374.886230,485.308563 378.915741,479.220367 
	C368.356873,482.638062 358.960693,486.164093 348.547180,481.586243 
	C352.513367,473.491638 358.336639,467.522095 364.735107,461.596283 
	C353.581421,462.646606 342.687286,463.592834 331.790710,457.136536 
	C337.589508,449.655365 345.342133,445.244141 353.284363,439.911194 
	C340.349426,437.881134 327.227814,437.813477 317.918884,426.712250 
	C325.727020,420.466522 334.953003,418.406036 344.494232,414.480957 
	C329.290649,410.273590 315.408112,405.883209 306.727692,391.721252 
	C316.953003,387.591370 326.992279,389.050659 336.925385,387.944733 
	C321.330383,380.606628 306.625366,372.584991 298.925232,354.750946 
	C312.802155,355.508972 325.064209,358.783295 337.797577,362.145508 
	C320.396667,351.112488 305.001343,338.956543 300.247955,317.567017 
	C319.736786,326.029816 339.421997,333.888855 356.625366,346.596100 
	C355.521271,348.335449 354.643280,348.371765 353.848389,348.292542 
	C349.298218,347.838989 348.861603,350.637665 349.470612,353.985107 
	C350.341003,358.769257 351.892487,363.327545 354.708984,367.376740 
	C355.366119,368.321442 356.132263,369.255096 355.983673,370.615997 
	C354.927582,372.587006 352.867706,372.032135 351.158661,372.383148 
	C346.383636,373.363831 345.450104,375.228333 347.240417,379.848328 
	C348.954437,384.271362 351.990082,387.792847 354.872314,391.115051 
	C354.782623,392.378296 354.163940,392.874329 353.422821,393.319672 
	C346.165344,397.680420 346.035431,398.849091 351.634033,405.207947 
	C353.379059,407.189972 355.991028,408.306793 357.182953,410.766235 
	C352.450378,419.670654 352.450378,419.670654 363.271271,427.360352 
	C360.247162,437.039246 360.247162,437.039246 373.410187,444.082947 
	C374.123077,445.858398 372.891968,447.224274 372.313110,448.721954 
	C370.560028,453.257446 371.525482,455.620758 376.231720,457.057861 
	C378.903839,457.873840 381.770935,458.498108 384.536621,458.448578 
	C388.041351,458.385803 388.824219,460.110046 387.918060,462.763367 
	C386.058594,468.208313 389.201935,469.503906 393.485321,470.253143 
	C399.462402,471.298584 404.834534,468.712677 406.245636,463.790955 
	C402.953033,463.131317 400.192078,465.370972 397.040955,465.342407 
	C393.412628,465.309570 392.264954,464.167023 393.392700,460.476562 
	C395.659332,453.059174 395.525116,453.157623 387.915497,453.288513 
	C384.409332,453.348846 379.668518,454.815765 377.996185,450.809174 
	C376.647369,447.577698 380.506439,445.088470 382.517120,442.533478 
	C383.111481,441.778198 384.065430,441.211304 383.758606,439.659363 
	C379.250488,438.783813 374.325348,439.005127 369.667419,436.506226 
M433.942108,601.177002 
	C432.191986,620.412476 424.920898,637.868469 416.817535,655.108154 
	C411.359589,666.719849 407.131500,678.794800 403.876465,691.248169 
	C401.973175,698.529846 402.152435,705.379456 405.275848,712.145569 
	C408.130890,718.330261 408.184814,724.662964 406.774689,731.180481 
	C406.143585,734.097351 405.776123,737.077209 405.407745,740.043152 
	C405.098785,742.530823 405.607330,744.617493 408.290955,745.739807 
	C417.041534,749.399475 425.751862,753.133118 434.817230,756.004944 
	C438.235535,757.087769 439.810913,756.234680 440.363953,752.788147 
	C443.785065,731.468994 447.206238,710.149719 450.703583,688.842957 
	C454.633087,664.903320 458.242737,640.882019 465.587280,617.669434 
	C468.393646,608.799866 469.922821,598.795105 482.747101,595.909973 
	C476.850189,592.940125 471.181763,592.420715 468.614777,587.313660 
	C466.396301,582.899841 464.219086,578.465332 461.500488,572.985596 
	C459.338654,579.914185 461.069122,586.331726 456.840576,591.932373 
	C450.966705,586.508484 446.752136,579.648010 439.139679,576.058594 
	C435.986938,584.216003 434.573608,592.152649 433.942108,601.177002 
M653.388245,807.337585 
	C652.759766,807.141846 651.928223,807.138062 651.533936,806.720947 
	C646.960388,801.882507 645.099243,795.562988 642.530212,789.661743 
	C641.671326,787.688843 643.852356,786.833923 645.256104,786.069946 
	C649.639343,783.684448 654.127747,781.490112 658.484009,779.057983 
	C660.922974,777.696228 662.661621,778.115662 663.672180,780.638855 
	C666.457642,787.593750 674.011841,793.299866 669.224487,802.694885 
	C676.494934,799.753052 683.001892,796.241882 689.619507,791.918518 
	C680.576477,787.589111 680.599670,787.577148 677.300476,781.191284 
	C674.398254,775.573792 671.266479,770.068115 668.545959,764.365234 
	C665.485779,757.950439 658.867615,752.426025 663.994873,743.756531 
	C663.536682,743.626892 663.078491,743.497192 662.620300,743.367554 
	C656.546692,746.682373 650.473145,749.997131 644.399536,753.311890 
	C644.203186,753.990356 644.006836,754.668823 643.810547,755.347229 
	C653.231628,754.301941 653.637878,761.765564 656.689941,766.729431 
	C657.212891,767.579956 657.665100,768.475342 658.210632,769.310364 
	C659.631470,771.484863 659.024963,773.001465 656.806824,774.142273 
	C652.072571,776.577148 647.330750,779.000732 642.656982,781.548218 
	C639.984375,783.004944 638.270752,782.343079 637.148438,779.618408 
	C634.602112,773.436951 628.742249,767.933411 633.598389,759.913940 
	C626.375916,762.337830 619.872559,765.079895 613.516663,769.675781 
	C621.773132,770.005005 622.889282,776.625366 625.455017,781.799622 
	C628.633362,788.209167 631.764465,794.653992 634.583069,801.226379 
	C636.930664,806.700317 642.128235,811.925110 636.110962,818.538025 
	C640.580444,818.341125 653.272400,812.483704 657.268311,809.114136 
	C656.832214,807.455627 655.469360,807.450806 653.388245,807.337585 
M493.298126,832.978821 
	C491.071503,827.102661 488.836029,821.230286 485.148254,815.736389 
	C487.462250,814.592896 489.281891,813.831360 490.965271,812.838684 
	C499.362701,807.886963 501.181091,796.942932 494.627136,790.758667 
	C491.376190,787.691162 487.350616,786.021667 483.019806,785.346191 
	C474.317261,783.989014 465.579285,782.858154 456.852814,781.656555 
	C455.983521,781.536804 455.203705,781.787170 454.525452,783.387695 
	C459.000641,785.881897 458.982788,790.193542 458.253296,794.816528 
	C456.674103,804.824524 455.048431,814.830994 453.797424,824.882385 
	C453.200714,829.676819 452.715454,834.150391 446.541534,835.777405 
	C454.421265,837.580017 461.595459,840.013306 469.608704,838.737976 
	C466.411499,836.303894 464.211884,833.806946 464.981171,829.754578 
	C465.662323,826.166626 466.321350,822.559204 466.681274,818.929810 
	C467.017181,815.542908 469.004639,815.280090 471.581635,815.876099 
	C474.302765,816.505371 475.698700,818.551575 476.591125,820.999573 
	C478.185364,825.372620 479.608490,829.812378 481.332336,834.132812 
	C484.660309,842.473816 491.143127,845.535767 500.519928,843.150513 
	C498.654266,839.592041 494.558899,837.714783 493.298126,832.978821 
M467.581696,740.992432 
	C466.675049,747.404724 465.903351,753.840637 464.791321,760.217102 
	C464.380707,762.571594 465.031372,763.866455 467.196686,764.193115 
	C471.748596,764.879822 476.248230,766.154785 481.562653,765.842529 
	C483.627869,723.577942 484.024017,681.382568 486.555237,639.265747 
	C478.043823,672.505127 472.863800,706.312805 467.581696,740.992432 
M394.264709,815.980225 
	C392.849030,816.781067 390.280121,815.610840 390.003571,818.715637 
	C390.429077,819.003479 390.899841,819.487305 391.469574,819.682800 
	C402.175446,823.356323 412.846039,827.142334 423.623688,830.593750 
	C431.600708,833.148438 431.751465,832.985291 434.881165,825.166016 
	C435.674805,823.183167 438.091309,821.003723 435.191711,818.403137 
	C434.408875,818.943298 433.575714,819.265747 433.120117,819.872009 
	C429.035217,825.307922 423.839783,825.544312 418.015961,823.299988 
	C415.846863,822.464050 413.621857,821.764465 411.398407,821.080566 
	C408.795013,820.279724 408.046021,818.609436 408.840240,816.088989 
	C410.190643,811.803223 411.525482,807.512573 412.858307,803.221375 
	C413.654663,800.657288 415.238403,799.748596 417.806305,800.801086 
	C420.262329,801.807678 422.746979,802.747009 425.183197,803.798889 
	C427.978180,805.005676 426.392334,808.864136 429.511932,810.795227 
	C431.998901,805.900269 433.467712,801.047546 434.271271,796.105835 
	C432.836121,795.098816 432.029419,795.784119 431.168030,796.274780 
	C427.692169,798.254822 420.668671,797.923950 417.734589,795.149719 
	C414.549622,792.138123 418.239929,789.419739 418.772614,786.582703 
	C419.229340,784.150269 420.194824,781.800781 421.067902,779.464233 
	C421.522858,778.246704 422.062531,777.101379 423.828186,777.073608 
	C430.082916,776.975403 437.802765,782.700439 439.381317,788.831238 
	C439.861603,790.696594 441.175903,792.585693 442.630463,790.869690 
	C444.863373,788.235779 445.297058,784.468384 445.577820,781.021790 
	C445.814911,778.110962 442.957672,777.931274 441.028839,777.270264 
	C430.961578,773.820312 420.860718,770.468140 410.765106,767.101379 
	C409.731110,766.756470 408.596191,765.916504 407.309723,767.983459 
	C412.486145,772.551208 409.236908,777.595459 407.487488,782.693665 
	C404.570282,791.195068 401.773376,799.738098 398.800781,808.219788 
	C397.881866,810.841553 397.434479,813.786743 394.264709,815.980225 
M595.115356,826.401489 
	C593.176392,822.857483 592.578979,818.863159 591.281189,815.107727 
	C590.140442,811.806702 591.510132,810.494141 594.471558,809.890564 
	C598.239014,809.122681 601.859619,807.912537 605.198303,805.977356 
	C613.262207,801.303528 616.094788,794.472656 613.607544,785.798462 
	C611.465027,778.326416 605.254883,774.157288 596.160767,775.029053 
	C585.866516,776.015869 576.189758,779.747498 566.408020,782.892578 
	C566.226318,782.950989 566.191223,783.465149 565.838623,784.492188 
	C571.387573,785.511353 572.883545,789.894348 574.044189,794.723572 
	C576.138794,803.439331 578.536743,812.081665 580.711609,820.778809 
	C581.973755,825.825989 584.344910,831.006714 579.468811,836.146790 
	C587.600769,835.363464 595.098450,833.612427 602.584961,830.579102 
	C600.676575,827.321350 597.230652,829.198792 595.115356,826.401489 
M522.742493,831.477478 
	C523.337158,826.104736 526.437134,824.062378 531.648499,824.641602 
	C532.779053,824.767212 533.968811,824.508850 535.114685,824.324158 
	C544.217651,822.856873 544.460327,823.373291 548.108459,831.548340 
	C550.161865,836.149597 547.087097,837.982483 543.969482,841.253784 
	C552.741150,841.966064 560.066040,840.232544 569.082825,838.787109 
	C560.516907,833.881592 558.490417,826.272095 555.185303,819.582031 
	C550.249084,809.590576 545.560059,799.471680 541.006042,789.299500 
	C539.518372,785.976685 537.405334,785.032410 533.971985,785.313232 
	C530.552002,785.592834 529.093811,787.364502 528.234131,790.450806 
	C525.604736,799.890869 523.063660,809.370789 519.960083,818.658813 
	C517.174561,826.994934 516.542603,836.338745 509.533386,842.891968 
	C509.433838,842.985046 509.713593,843.483826 509.945282,844.181641 
	C515.413757,843.856506 520.955444,843.526978 526.497131,843.197449 
	C526.616577,842.770630 526.736023,842.343811 526.855469,841.917053 
	C522.876465,839.698792 520.337402,836.920166 522.742493,831.477478 
M351.615784,800.883606 
	C356.050507,804.314331 361.073730,806.440613 366.565216,807.403687 
	C377.167206,809.263062 386.934631,800.293152 385.573883,789.873962 
	C384.968567,785.238770 382.150208,781.654785 379.241058,778.189819 
	C376.572449,775.011292 373.605469,772.076355 371.702026,768.294250 
	C369.978973,764.870789 369.493042,761.441040 372.431732,758.627441 
	C375.448761,755.738953 379.172729,756.095947 382.667603,757.836609 
	C387.432831,760.210083 389.886383,763.989258 389.400299,769.530945 
	C389.233612,771.430969 389.083862,774.073608 392.276764,773.395081 
	C395.283844,772.756042 398.144623,763.163025 395.994812,761.085938 
	C391.038300,756.297180 385.556091,752.291992 378.666656,750.679871 
	C370.608215,748.794189 363.501495,751.666931 359.959045,758.536743 
	C356.677155,764.901184 358.250427,770.735046 362.342468,776.229858 
	C365.420166,780.362549 369.229126,783.936646 371.732147,788.502319 
	C373.572266,791.858887 373.782501,795.198975 371.185547,798.264221 
	C368.544739,801.381165 365.087860,801.350464 361.565918,800.266479 
	C354.196014,797.998352 350.223785,791.775208 351.350891,784.299255 
	C351.615387,782.544983 351.837891,780.787781 349.935822,780.000977 
	C347.735168,779.090698 347.013641,781.140137 346.306305,782.500366 
	C340.771515,793.143433 339.556366,790.004639 348.661285,798.640137 
	C349.381439,799.323181 350.241333,799.858765 351.615784,800.883606 
M724.643311,508.535950 
	C723.689697,473.220764 724.311462,437.873383 722.004333,402.573151 
	C721.370728,412.882538 721.445068,423.192322 721.357422,433.500702 
	C721.036255,471.293915 720.434998,509.086731 720.445923,546.879517 
	C720.449158,558.011292 718.944519,568.389954 713.001953,577.912109 
	C712.205017,579.189148 711.378906,580.532104 712.484802,582.053711 
	C714.305542,584.559021 716.153442,587.044678 718.432373,590.139526 
	C724.852661,582.907837 719.278992,573.938965 722.733215,566.773132 
	C726.564148,568.244202 726.311951,572.621643 730.130676,574.820068 
	C725.139038,565.054749 724.543762,555.374146 724.695312,545.495056 
	C724.879211,533.508118 724.679260,521.515198 724.643311,508.535950 
M583.250916,685.450073 
	C585.589294,698.798035 587.927673,712.145996 590.266052,725.493958 
	C589.828247,714.473633 588.676819,703.556702 587.774231,692.619141 
	C586.104858,672.389526 583.339478,652.304810 579.473877,632.395142 
	C577.814636,623.849060 575.058289,615.536438 568.119324,608.720703 
	C568.040649,613.118408 569.515686,616.542297 570.296753,620.084351 
	C575.019043,641.499573 579.541565,662.952271 583.250916,685.450073 
M567.757568,676.506104 
	C566.110107,653.419434 564.220032,630.387329 552.941711,609.456543 
	C558.882629,643.482971 563.339722,677.712463 568.194275,711.889160 
	C568.780334,700.366821 568.877686,688.902527 567.757568,676.506104 
M557.136719,562.383972 
	C560.752380,564.216980 564.145447,566.680237 569.689392,566.731750 
	C555.349976,554.051147 541.840576,542.104553 528.331238,530.157959 
	C534.891174,543.433105 544.247314,554.049561 557.136719,562.383972 
M614.588440,528.783875 
	C612.290894,524.502930 610.836365,519.705322 607.163513,516.142334 
	C608.716125,527.286255 610.607910,538.173706 610.579163,549.599182 
	C619.958313,545.403198 621.302307,542.008057 617.353455,534.345215 
	C616.518616,532.725159 615.698181,531.097595 614.588440,528.783875 
M539.270386,308.896545 
	C542.952820,306.412018 546.535828,303.850372 547.388306,298.906311 
	C539.447754,298.606232 530.015564,304.751923 528.165222,311.274780 
	C532.016052,312.417572 535.274780,310.577789 539.270386,308.896545 
M517.120544,312.611206 
	C519.896606,309.247498 523.095642,306.068268 522.616089,300.961548 
	C514.939087,302.932922 508.780548,310.572144 509.104553,317.474731 
	C512.417908,317.357605 514.326172,314.898346 517.120544,312.611206 
M498.054291,319.497620 
	C498.701935,317.083313 500.419678,314.794220 499.144501,312.015228 
	C491.922363,315.594666 487.444977,323.513489 489.364807,329.375732 
	C493.662598,327.627838 495.942291,324.125031 498.054291,319.497620 
M515.577087,324.026184 
	C511.335815,324.096802 507.181519,324.395172 504.018890,328.122681 
	C511.284973,331.374268 520.202087,330.264587 525.090149,325.520569 
	C522.363708,323.702332 519.303223,324.470764 515.577087,324.026184 
M500.628967,339.335815 
	C493.442047,336.656281 485.139709,338.790283 481.956421,344.530273 
	C488.856964,345.091125 495.239502,344.956451 500.628967,339.335815 
M720.814758,606.253235 
	C722.872681,603.731750 724.151611,605.950378 725.716858,606.986206 
	C727.695557,608.295715 729.130737,611.062439 731.796509,610.140991 
	C728.634827,606.671753 725.507812,603.240540 722.273865,599.692078 
	C719.086182,602.713379 715.961853,605.645996 712.891541,608.634155 
	C712.618347,608.900085 712.696838,609.527283 712.562195,610.256775 
	C716.094299,610.893127 718.157104,608.703918 720.814758,606.253235 
M478.127869,331.825775 
	C478.591675,330.300903 479.023407,328.779236 477.943848,327.175781 
	C473.879028,331.300598 473.428741,333.170990 475.273315,337.638397 
	C477.148865,336.422180 477.362579,334.375702 478.127869,331.825775 
z"/>
<path fill="#000000" opacity="1.000000" stroke="none" 
	d="
M687.309448,513.458923 
	C690.852600,516.407898 694.137878,519.230469 697.544495,521.898071 
	C699.393005,523.345703 700.372437,525.004883 700.333740,527.407471 
	C700.239746,533.237976 700.221191,539.071533 700.294983,544.902283 
	C700.339417,548.418640 699.212280,549.753235 695.475281,548.650208 
	C686.100586,545.882996 677.614197,541.404236 669.573425,535.958984 
	C667.847107,534.789856 666.385925,533.085022 663.290405,532.877625 
	C668.652893,541.710815 674.896545,549.182373 681.421143,556.388489 
	C685.098633,560.450195 689.393005,563.948425 693.316772,567.794983 
	C694.637756,569.089844 697.247070,570.014404 696.114136,572.477356 
	C695.165955,574.538513 692.758972,574.441345 690.789734,574.517761 
	C680.752380,574.907532 671.310852,572.796631 662.522766,567.796082 
	C659.086365,565.840759 656.011719,563.185059 651.020691,561.638184 
	C656.127930,572.823120 662.332642,582.205261 669.815369,591.252625 
	C666.869324,593.056274 664.224915,592.415100 661.748596,591.999390 
	C651.891052,590.344543 643.766052,585.139404 636.319946,578.855835 
	C632.961609,576.021851 633.185913,571.293823 631.507935,567.553833 
	C629.389221,562.831482 632.321716,560.158569 634.927612,557.053894 
	C638.456238,552.849854 642.654419,548.753662 643.963501,543.403442 
	C645.465149,537.266296 639.564270,533.808960 636.752563,529.391724 
	C623.998535,509.355042 614.680115,487.596222 604.380737,466.324799 
	C599.853027,456.973572 594.713623,448.052490 586.448730,441.379456 
	C585.803772,440.858673 585.225586,440.244415 585.339233,439.063019 
	C587.732056,437.237091 590.843994,437.364624 593.690918,436.658997 
	C604.040771,434.093872 613.429077,429.991882 617.917908,419.412170 
	C621.430359,411.133881 620.949951,402.610138 616.666992,394.800598 
	C607.074463,377.309326 613.284546,357.600220 624.588928,345.507812 
	C633.438477,336.041412 644.539673,329.958344 655.747253,324.124420 
	C672.913879,315.188599 690.117493,306.411011 704.301392,292.880981 
	C704.905762,292.304504 705.527405,291.732025 706.995056,292.325348 
	C705.055054,301.645172 704.823486,311.230011 697.036255,318.950531 
	C687.592529,328.313324 676.937500,335.857147 666.015869,343.188416 
	C658.989685,347.904816 651.883606,352.532471 646.943970,359.987488 
	C654.624817,357.055664 661.890686,352.501831 671.182251,354.076233 
	C669.755432,363.763641 663.542542,369.625427 656.470703,375.515381 
	C660.960144,377.312531 665.124512,375.575256 669.115784,376.548370 
	C673.741150,377.676086 673.972656,378.044708 671.722778,382.368713 
	C668.750732,388.080627 663.205017,390.526428 657.268311,393.925110 
	C661.714478,395.216492 665.350159,396.108246 668.865723,397.342010 
	C672.062317,398.463867 672.359741,400.328308 670.030701,402.953735 
	C666.631653,406.785187 661.696777,407.612793 657.023315,409.986115 
	C658.760193,412.160950 661.313354,412.670685 663.288269,413.966370 
	C667.653992,416.830536 667.578247,418.746643 662.927490,421.318634 
	C659.353455,423.295227 655.260742,423.423859 650.691467,424.810822 
	C653.415405,427.039825 655.848022,428.869354 658.091064,430.907501 
	C660.776611,433.347687 660.448853,435.233215 657.003601,436.851105 
	C652.385010,439.020020 647.336121,438.580292 641.974426,439.474304 
	C644.220642,442.332428 646.194824,444.732574 648.044434,447.225220 
	C650.505005,450.541412 649.192078,452.459290 645.532593,453.129120 
	C640.584656,454.034790 635.686035,453.238098 630.057861,451.692902 
	C631.229492,454.959076 632.224060,457.358307 632.950317,459.836151 
	C634.349487,464.610199 633.108948,466.133209 628.152039,465.152802 
	C624.813354,464.492462 621.633728,463.028107 618.254028,461.879639 
	C621.079041,469.003479 631.684387,472.837433 637.785095,469.144409 
	C639.517944,468.095428 639.771118,466.613007 639.328857,464.838104 
	C638.889282,463.074432 638.268616,461.331757 638.776123,459.238373 
	C642.166809,458.098389 645.931702,458.766846 649.408813,457.506561 
	C655.343445,455.355743 656.107239,453.936768 653.906738,447.982666 
	C653.507751,446.903107 653.217407,445.783447 652.846436,444.583557 
	C655.396484,442.036682 659.039612,442.143158 661.865356,440.456940 
	C666.834839,437.491425 667.621521,435.882935 664.867432,430.890564 
	C663.216248,427.897278 663.771484,426.317810 666.697510,425.103180 
	C667.309082,424.849335 667.876892,424.483093 668.448425,424.141083 
	C674.989807,420.226685 675.279114,418.571075 670.497314,412.607330 
	C670.094238,412.104614 669.771240,411.537598 669.249084,410.758942 
	C672.261536,407.610077 676.264648,405.393250 678.039795,401.388580 
	C680.571472,395.677246 674.486389,394.870728 671.945251,391.744049 
	C674.020203,388.734283 676.512268,386.105072 678.130798,382.835297 
	C681.345032,376.341461 680.762634,374.540161 674.108643,372.245392 
	C673.485352,372.030457 672.859375,371.794464 672.283997,371.478394 
	C671.860474,371.245667 671.517456,370.866272 671.033508,370.465118 
	C672.440796,366.265869 675.234131,362.830322 676.305054,358.577026 
	C678.388428,350.302002 678.517761,350.334564 670.447449,346.485229 
	C680.664612,339.079254 691.339111,333.770874 702.794312,327.794281 
	C703.772400,333.891266 702.886414,339.154358 703.329224,344.318207 
	C703.803711,349.851379 702.156921,354.318756 695.812927,358.368286 
	C703.803772,358.066864 703.533447,362.105530 703.167297,366.249969 
	C703.050232,367.574463 703.048889,368.915771 703.089844,370.246460 
	C703.299805,377.066162 702.680542,383.389740 694.499084,385.493805 
	C693.882019,385.652527 693.349915,386.141815 693.096985,386.290283 
	C693.504333,388.331238 694.757446,388.316345 695.594421,388.210876 
	C701.250488,387.498077 702.597839,390.114624 702.456726,395.426117 
	C702.101196,408.808533 702.327820,408.796265 689.418213,412.434998 
	C687.892090,412.865143 686.073120,412.835907 684.782715,414.918762 
	C688.674500,417.623413 693.449646,418.062225 697.511047,420.094452 
	C700.362061,421.520996 702.155212,423.119812 702.404053,426.799225 
	C702.783508,432.410461 700.431152,435.232788 695.262146,436.314209 
	C692.171509,436.960754 689.104492,437.771057 685.985291,438.216003 
	C682.894897,438.656830 679.765686,438.791077 676.927063,439.980560 
	C676.500366,442.554688 678.479065,442.947479 679.757324,443.791351 
	C683.936768,446.550629 687.996948,449.470184 691.536194,453.019287 
	C695.119202,456.612244 694.747253,458.750916 690.044495,460.013580 
	C683.279236,461.830017 676.387390,463.007080 669.307251,461.870483 
	C667.066956,461.510834 664.780273,461.440125 662.216492,461.700500 
	C668.322266,467.631348 674.728699,473.121826 678.106140,481.643311 
	C667.292053,486.163513 657.646118,482.344055 647.015320,478.648071 
	C651.230469,484.331238 654.688782,489.196533 656.904175,494.776367 
	C657.490906,496.253967 658.908325,497.803589 657.534241,499.387756 
	C656.397278,500.698578 654.759644,499.863708 653.288147,499.744720 
	C645.916016,499.148712 639.716064,495.582855 633.078735,492.151581 
	C636.556763,499.494537 635.884094,508.427307 641.892944,515.610046 
	C645.125854,511.341248 642.573975,507.774628 643.460022,504.090607 
	C648.910156,504.674438 654.200317,506.181335 659.690063,505.736816 
	C665.668884,505.252686 666.461975,504.329132 664.632751,498.678314 
	C663.723694,495.870148 662.761719,493.079102 661.542969,489.442535 
	C666.962830,489.510956 671.741638,490.011414 676.412292,488.828644 
	C688.099426,485.868988 688.211853,485.066620 681.990540,475.506592 
	C680.652710,473.450806 678.592957,471.826416 677.976074,468.554871 
	C685.690552,467.642242 693.340881,466.550018 699.955994,462.152618 
	C701.730835,466.550873 701.524902,510.467407 699.863220,515.875061 
	C695.133118,515.945740 691.152405,513.252625 686.783691,511.971375 
	C686.661926,511.935699 686.492065,512.063843 686.344666,512.115601 
	C686.597168,512.499695 686.849670,512.883850 687.309448,513.458923 
z"/>
<path fill="#000000" opacity="1.000000" stroke="none" 
	d="
M768.859619,301.889679 
	C765.479492,304.599854 762.368713,307.075897 759.257935,309.551910 
	C769.056946,305.185760 777.940063,299.391174 786.583557,293.183502 
	C795.382141,286.864441 803.897766,280.195404 812.179749,273.214233 
	C820.348572,266.328491 827.868835,258.777191 835.133240,250.973785 
	C842.435303,243.129837 848.704407,234.401947 855.845215,225.045029 
	C858.347595,232.213028 856.700806,238.154037 855.737488,243.852463 
	C852.225159,264.630402 841.241394,281.545410 827.118896,296.626556 
	C810.556519,314.313263 790.502991,327.465149 770.070496,340.097290 
	C767.540161,341.661621 765.001648,343.212677 762.637451,345.114716 
	C778.964111,339.636078 794.153259,331.701355 809.067017,323.240997 
	C824.111877,314.706238 837.918518,304.359436 851.351868,292.459869 
	C852.817200,297.148468 851.064819,300.447388 849.861816,303.715149 
	C842.810181,322.869904 829.581116,337.064697 813.446899,348.958588 
	C797.910156,360.412048 780.433533,368.249847 763.086853,376.349213 
	C762.197998,376.764252 761.302185,377.164368 760.509644,377.900299 
	C768.455811,376.958069 776.114075,374.793457 783.650146,372.295746 
	C791.383301,369.732697 799.098450,367.028656 806.584900,363.832062 
	C814.043213,360.647491 821.207581,356.774689 828.789734,353.062164 
	C829.799500,356.518707 827.979065,359.041321 826.695618,361.557526 
	C820.900452,372.918671 812.486450,381.979767 802.074158,389.279541 
	C784.649414,401.495697 765.130981,408.816010 744.895020,414.315613 
	C742.411682,412.117157 743.030823,409.459534 743.005737,407.083160 
	C742.812134,388.759216 743.299866,370.406616 742.432922,352.117096 
	C741.513245,332.716034 743.983215,312.952393 738.473938,294.006531 
	C736.014099,285.547485 738.749634,281.468719 745.198242,276.476135 
	C776.755127,252.044601 804.909546,224.357925 824.547363,189.032349 
	C828.031006,182.765762 831.241699,176.375854 833.775757,169.655426 
	C834.408569,167.977234 834.884277,166.160263 836.576904,164.831314 
	C838.824341,166.030472 838.738770,168.402603 839.215088,170.347183 
	C843.805664,189.088882 840.566528,207.079239 833.274353,224.448715 
	C823.555298,247.599075 808.059265,266.654053 789.804932,283.571625 
	C783.092102,289.792938 776.031128,295.638580 768.859619,301.889679 
z"/>
<path fill="#000000" opacity="1.000000" stroke="none" 
	d="
M670.210754,227.075317 
	C669.745728,228.197220 669.336121,228.936859 669.093872,229.727737 
	C667.682129,234.337936 665.304138,234.460770 661.315369,232.203110 
	C622.802368,210.404648 581.480042,197.682343 537.328247,194.167343 
	C483.489471,189.881134 432.305878,199.866135 383.523987,222.699799 
	C376.897308,225.801575 370.460144,229.341476 364.105499,232.976212 
	C361.145782,234.669098 359.756714,233.967361 358.265594,231.171936 
	C355.613586,226.200287 354.677490,220.453278 351.286804,215.637543 
	C347.406952,216.670624 346.856598,220.993790 344.088623,222.759064 
	C342.112457,222.388245 341.777191,220.722916 340.872162,219.612350 
	C338.521362,216.727539 339.186371,214.939545 342.428467,213.007568 
	C368.329224,197.573166 395.778625,185.831680 424.825562,177.769363 
	C458.600281,168.394791 493.020691,164.219421 528.002014,165.916229 
	C579.139526,168.396713 627.366150,181.726379 672.363647,206.328079 
	C677.591370,209.186264 683.134949,211.560989 687.862427,215.572540 
	C687.189514,218.556610 685.256348,220.471466 683.370239,222.485275 
	C679.853516,220.971649 679.200623,216.861298 675.701599,215.615753 
	C672.623962,218.758804 672.142578,223.069855 670.210754,227.075317 
z"/>
<path fill="#000000" opacity="1.000000" stroke="none" 
	d="
M318.370422,605.429932 
	C307.934021,614.474548 296.668243,621.057007 282.857483,621.646057 
	C277.209808,621.886963 271.325287,622.123657 265.282166,618.317200 
	C278.614655,608.846741 290.248047,598.611572 299.817871,586.043762 
	C279.147614,598.640320 258.235382,608.127747 234.215820,593.828003 
	C250.137344,586.761230 264.812134,577.911804 278.469788,567.117432 
	C258.086426,575.479492 237.706665,584.070679 216.556870,569.023254 
	C229.322311,564.578430 241.811920,559.922180 253.935974,552.563538 
	C235.610962,555.209595 218.076614,557.280579 203.622025,542.455566 
	C208.621857,541.706055 213.641403,541.067932 218.617950,540.186890 
	C235.859680,537.134521 251.702637,530.151611 267.260681,522.485718 
	C270.800323,520.741577 273.890015,520.250854 277.669617,521.791809 
	C284.178406,524.445435 291.065308,525.690857 298.123047,525.962219 
	C300.390411,526.049316 302.804718,525.710205 305.718262,527.792542 
	C297.440948,532.696899 288.702789,535.525879 279.803314,539.626831 
	C294.910889,555.989868 312.966553,559.810852 334.732513,555.177551 
	C329.047791,563.487427 320.921051,566.710327 314.921356,573.157593 
	C321.363617,578.677673 328.520020,581.048584 336.415344,581.759460 
	C344.306915,582.470032 351.826721,580.468994 359.860931,578.069336 
	C359.070129,583.193909 355.688721,586.755554 355.858093,591.810791 
	C365.861694,594.552307 375.376373,591.715088 386.173676,588.386658 
	C380.761261,602.034912 380.334595,615.411560 377.260925,628.217957 
	C375.909698,633.847839 370.098114,636.389771 363.546051,638.728394 
	C364.689087,630.658203 365.677032,623.682983 366.664978,616.707703 
	C358.728760,628.796204 349.703827,639.057251 333.047272,641.704346 
	C338.455444,631.016785 343.405518,621.454163 345.867920,609.468445 
	C339.311523,617.184143 334.013733,624.402832 326.440033,629.209778 
	C318.719696,634.109741 310.464691,637.236511 299.574341,635.957642 
	C309.275238,624.418030 317.492615,613.094727 323.810150,600.378296 
	C322.083313,601.982666 320.356445,603.587036 318.370422,605.429932 
z"/>
<path fill="#000000" opacity="1.000000" stroke="none" 
	d="
M304.316345,277.467529 
	C304.151520,279.498840 304.989471,281.192627 303.683136,283.074799 
	C299.187744,281.704590 296.025238,278.155670 292.340240,275.550323 
	C287.315643,271.997894 282.632263,267.966095 277.755157,264.201294 
	C254.419724,246.187866 243.641586,221.878571 242.025040,192.981293 
	C241.925339,191.198914 241.814957,189.313629 243.937210,187.472412 
	C251.931854,199.160065 259.694397,210.927277 270.064819,220.664551 
	C262.404510,207.227203 255.654694,193.376923 251.773483,178.369278 
	C247.901184,163.395981 246.356445,148.422348 254.439346,133.887787 
	C259.256470,149.143875 264.429749,164.111862 272.111084,178.084671 
	C279.728210,191.940720 288.072052,205.310150 298.333923,217.503342 
	C294.825073,210.853363 291.313507,204.204788 287.807831,197.553131 
	C276.820709,176.706284 268.724548,154.984161 268.791718,131.030975 
	C268.823456,119.705147 271.591614,108.942032 277.724396,99.239433 
	C279.117157,97.035957 280.634186,94.892357 282.792480,93.779205 
	C284.270844,94.425079 284.248535,95.321793 284.233337,96.120209 
	C283.747833,121.609589 292.084412,144.841309 302.596802,167.483978 
	C312.584961,188.997498 325.277069,208.976273 337.968506,228.940033 
	C339.751709,231.745026 340.640472,234.479858 340.403351,237.824280 
	C339.905212,244.850830 340.773834,251.775665 342.779266,258.539062 
	C343.158936,259.819489 343.630402,261.064728 342.746063,263.187714 
	C336.556885,260.288940 331.755890,254.780060 324.824677,253.066681 
	C321.252045,264.713257 324.888031,275.461304 327.752899,286.474182 
	C318.660858,280.797150 312.316315,272.522583 305.539703,264.712982 
	C305.129211,264.896942 304.718689,265.080902 304.308167,265.264862 
	C304.308167,269.189026 304.308167,273.113220 304.316345,277.467529 
z"/>
<path fill="#000000" opacity="1.000000" stroke="none" 
	d="
M732.143494,269.658661 
	C728.898621,262.606018 727.241272,255.242661 723.133423,248.635712 
	C720.017456,250.628845 719.514465,253.584763 718.499207,256.070496 
	C716.171265,261.770050 714.117126,267.584015 712.043457,273.384247 
	C709.871643,279.459198 704.918762,282.615967 698.802734,286.681122 
	C700.149536,279.418060 702.485901,273.732758 703.135071,267.662750 
	C703.532471,263.946075 703.306274,260.395203 702.949707,256.747772 
	C702.565979,252.822510 700.587585,252.807861 697.903870,254.423615 
	C695.052979,256.140015 692.297729,258.017151 689.523987,259.859070 
	C688.023865,260.855225 686.696716,262.171539 684.186646,262.506805 
	C683.432495,257.487152 685.915649,253.060287 686.008850,248.409424 
	C686.048584,246.428238 686.907715,244.362076 686.555542,242.492569 
	C685.246033,235.541672 688.133301,230.109848 691.701965,224.479767 
	C704.096558,204.925583 716.444580,185.337830 725.908142,164.096146 
	C735.470154,142.633362 742.643433,120.633415 742.699097,96.822670 
	C742.701294,95.875435 742.453247,94.797409 743.801514,93.842720 
	C746.437195,94.827972 747.943909,97.236862 749.370117,99.577423 
	C756.191040,110.771362 758.115784,123.050499 757.669617,135.975449 
	C756.816223,160.694778 747.012573,182.450043 735.735779,203.756287 
	C733.165833,208.611877 730.505981,213.419937 728.554443,218.742508 
	C732.997620,212.398987 737.640320,206.183929 741.829102,199.676682 
	C746.243713,192.818710 750.516785,185.835342 754.312500,178.622955 
	C758.028992,171.561020 761.283630,164.231674 764.340332,156.853683 
	C767.360718,149.563293 769.439331,141.912781 771.530945,133.633316 
	C774.989624,136.422653 775.471252,139.617737 776.262451,142.543930 
	C779.587524,154.840515 777.863953,166.980667 774.717224,179.004395 
	C771.147583,192.644241 764.927612,205.173004 758.217224,217.479980 
	C757.686646,218.453003 756.729919,219.251816 756.910828,220.790588 
	C767.212524,210.945053 774.687073,199.044830 783.145203,187.268326 
	C791.218140,212.741882 761.590637,264.967316 734.566772,274.304932 
	C733.023682,273.296875 732.887390,271.528168 732.143494,269.658661 
z"/>
<path fill="#000000" opacity="1.000000" stroke="none" 
	d="
M509.095825,255.995605 
	C487.185211,257.372101 469.056549,265.988464 454.215240,281.326111 
	C439.346954,296.691650 431.555969,315.143158 431.189117,336.645020 
	C430.826019,357.924988 438.181793,376.581360 451.745087,394.343323 
	C447.784088,393.537994 446.297272,391.699097 444.832825,390.082886 
	C429.868073,373.566864 421.056183,354.453033 420.917908,331.877411 
	C420.894836,328.110565 419.549866,326.160187 416.151123,324.747772 
	C412.219757,323.114075 408.172577,321.518158 404.378510,318.376831 
	C408.599976,315.613495 413.185333,315.754547 417.383545,314.879456 
	C421.031189,314.119110 423.493683,312.819275 424.362335,308.953461 
	C425.199371,305.228333 422.341919,303.937561 420.239624,302.265076 
	C415.632782,298.600037 410.866913,295.134949 405.078125,290.767456 
	C412.354431,290.155701 417.962585,291.909546 423.664795,292.090240 
	C424.651947,292.121521 425.625122,292.466797 426.613831,292.599152 
	C429.308075,292.959961 431.404877,292.331757 432.878937,289.690491 
	C434.376953,287.006226 433.108002,285.209351 431.471588,283.473541 
	C425.528076,277.169006 419.519897,270.925415 413.540131,264.655029 
	C412.647034,263.718536 411.356781,263.071503 411.198730,261.264099 
	C413.110535,260.196869 414.535675,261.699921 416.007843,262.387909 
	C423.703827,265.984406 431.367096,269.651154 439.033905,273.309845 
	C441.202881,274.344940 443.139130,275.207642 445.337402,272.976929 
	C447.470459,270.812408 447.518768,268.803284 446.329865,266.257416 
	C443.531677,260.265350 440.864349,254.212173 437.718506,247.240662 
	C441.503143,248.302917 443.524323,250.543106 445.888763,252.111908 
	C449.219666,254.321930 452.536499,256.561584 455.752502,258.933411 
	C458.044983,260.624146 459.965118,260.016113 462.162689,258.707581 
	C464.584930,257.265289 464.488953,255.423996 463.801971,253.153183 
	C461.537598,245.668198 459.287323,238.177719 457.168579,230.650803 
	C456.651062,228.812225 455.490356,227.004135 456.320221,224.396347 
	C460.271515,226.828674 462.239685,230.751022 464.947449,233.901123 
	C468.527130,238.065567 471.735474,242.546890 475.211090,246.804077 
	C476.699646,248.627365 478.353882,250.229156 481.189362,249.167557 
	C484.055573,248.094452 484.639771,245.976181 484.760010,243.264587 
	C485.044678,236.845947 484.762787,230.372284 486.285767,223.055527 
	C490.394165,228.483765 492.635773,234.014389 495.525085,239.135452 
	C497.170502,242.051865 498.683228,244.710754 502.714783,243.797531 
	C506.411011,242.960297 506.218903,239.846497 506.685883,237.127335 
	C508.401062,227.139954 510.086243,217.147400 511.810944,207.161682 
	C512.004456,206.041428 512.145630,204.825302 513.996399,203.922256 
	C515.449829,212.032684 516.864807,219.947433 518.287781,227.860748 
	C518.963989,231.621231 519.649414,235.380035 520.341858,239.137573 
	C520.794617,241.594589 521.728821,243.471375 524.646301,243.849213 
	C527.442810,244.211365 528.976196,243.006454 530.190247,240.677124 
	C532.499634,236.246384 534.988892,231.909775 537.359863,227.510544 
	C538.065796,226.200775 538.495361,224.707733 540.466248,223.980240 
	C542.053467,227.051361 541.091675,230.369949 541.302185,233.515564 
	C541.557190,237.325928 540.976746,241.186279 542.013123,244.952805 
	C543.339172,249.772141 547.618896,251.054977 550.885315,247.267685 
	C556.102234,241.218933 560.942749,234.846191 565.972290,228.634644 
	C567.189392,227.131500 568.058533,225.188766 571.057556,224.630844 
	C569.167847,230.992126 567.358765,236.953140 565.633911,242.938431 
	C564.667297,246.292465 563.988464,249.735275 562.903748,253.047653 
	C562.019043,255.749405 562.886108,257.424408 565.062683,258.990845 
	C567.241150,260.558594 568.994995,260.061890 570.949463,258.661072 
	C574.875793,255.846924 578.857971,253.108383 582.869507,250.416672 
	C584.446045,249.358856 585.802490,247.707840 588.382935,247.994995 
	C587.678528,252.118927 585.078613,255.271271 583.668640,258.902802 
	C582.645996,261.536743 581.429138,264.103363 580.165588,266.633453 
	C578.914490,269.138519 579.753235,271.019775 581.450073,272.946381 
	C583.396790,275.156708 585.275024,274.164520 587.272095,273.211243 
	C594.937561,269.552185 602.596375,265.878479 610.293823,262.287781 
	C611.858765,261.557770 613.280334,260.079865 615.361816,260.796722 
	C615.552917,263.082367 613.652832,263.955139 612.486572,265.212158 
	C607.048340,271.073517 601.505432,276.837555 596.051392,282.684418 
	C594.380005,284.476227 592.317993,286.150818 593.757141,289.173798 
	C595.225891,292.258911 597.899963,292.167755 600.588928,291.997986 
	C606.869568,291.601471 613.144470,291.113495 619.933228,290.625824 
	C619.139099,293.750244 616.515625,294.507812 614.738220,295.933136 
	C611.753357,298.326691 608.591614,300.507111 605.435974,302.677826 
	C603.017761,304.341309 601.763794,306.328552 602.384277,309.421265 
	C603.013550,312.557587 605.178589,313.820618 607.893494,314.478577 
	C612.334961,315.554993 616.806030,316.508942 621.836548,317.643524 
	C618.969971,321.751526 615.163757,322.886780 611.798157,324.218170 
	C606.846436,326.177032 605.223755,329.223602 605.227356,334.497711 
	C605.242859,356.858551 596.106018,375.417236 580.616089,391.118469 
	C579.482056,392.267975 578.441956,393.698364 575.648926,393.803741 
	C601.461426,357.330078 604.370850,320.765442 575.665161,285.157104 
	C558.958435,264.432983 536.205688,255.297882 509.095825,255.995605 
z"/>
<path fill="#000000" opacity="1.000000" stroke="none" 
	d="
M384.726929,281.347473 
	C394.563751,295.961151 396.634674,311.813751 395.426514,329.797546 
	C382.320618,321.319061 369.437164,315.510712 356.900024,309.040314 
	C346.360107,303.600739 338.784607,295.557129 334.206940,284.730682 
	C331.292206,277.837372 328.836487,270.765289 330.018860,262.250977 
	C340.611603,266.188660 347.305481,274.823090 356.896332,281.368988 
	C349.402557,265.000854 342.869415,249.315308 348.162018,232.027603 
	C349.615997,231.568466 350.183350,232.058685 350.415009,232.649948 
	C356.316833,247.713654 367.241028,259.295013 377.255829,271.514862 
	C379.786774,274.603027 382.105377,277.865204 384.726929,281.347473 
z"/>
<path fill="#000000" opacity="1.000000" stroke="none" 
	d="
M680.276978,249.690704 
	C678.958862,260.391815 675.256531,269.925507 671.327026,279.508820 
	C679.874939,274.240936 686.636169,266.792053 696.053040,262.623993 
	C698.260193,267.589966 696.669495,271.809021 695.594971,275.797058 
	C691.562134,290.764709 683.422852,302.424225 668.955933,309.437286 
	C656.724304,315.366760 644.557983,321.481689 632.815674,328.736176 
	C630.688049,326.034363 630.853210,323.347961 630.839478,320.764923 
	C630.754211,304.793091 634.985291,290.190582 644.925537,277.495941 
	C649.026550,272.258484 653.094849,266.961182 657.605164,262.086243 
	C664.695740,254.422516 670.331543,245.889984 674.643372,236.418213 
	C675.315063,234.942749 675.554932,233.181808 677.588074,231.696899 
	C681.218994,237.234695 680.139832,243.351654 680.276978,249.690704 
z"/>
<path fill="#000000" opacity="1.000000" stroke="none" 
	d="
M789.079285,554.364746 
	C782.901428,554.389282 777.408630,553.079956 770.488953,551.538452 
	C783.614380,559.469666 796.503479,564.439087 810.360901,568.171143 
	C808.162476,572.204651 804.823120,573.314209 801.653320,574.411743 
	C783.072388,580.844971 765.988647,575.702454 749.363953,567.399597 
	C746.675293,566.056824 745.932617,563.537048 745.714294,560.746765 
	C744.883362,550.125916 744.784973,539.483521 744.800781,528.840881 
	C744.810059,522.564758 751.166565,518.776062 756.976990,521.540405 
	C769.893372,527.685364 782.783508,533.893372 796.677307,537.611755 
	C804.065491,539.589050 811.534668,541.155457 819.189697,541.682983 
	C820.489441,541.772461 821.898926,541.645203 823.122375,543.680481 
	C813.816467,553.109375 802.069519,554.850342 789.079285,554.364746 
z"/>
<path fill="#000000" opacity="1.000000" stroke="none" 
	d="
M767.786133,415.650269 
	C782.795105,413.354065 796.881531,409.136902 811.136353,404.570496 
	C809.578613,410.393280 806.762024,415.202393 803.309631,419.576447 
	C791.539795,434.488464 775.508057,442.485016 757.574036,447.247803 
	C754.204590,448.142639 750.747925,448.704224 747.345703,449.481415 
	C744.643372,450.098694 743.685974,448.855377 743.679565,446.334290 
	C743.658875,438.173431 743.654297,430.011902 743.532227,421.852295 
	C743.483643,418.599487 745.496826,417.923126 748.049011,417.898193 
	C754.565613,417.834503 760.971619,416.877167 767.786133,415.650269 
z"/>
<path fill="#000000" opacity="1.000000" stroke="none" 
	d="
M779.675171,455.643921 
	C783.317993,455.023163 786.524109,454.427673 790.638367,453.663513 
	C788.745911,459.802551 784.947571,463.561981 781.286072,467.172119 
	C772.322205,476.010345 761.502686,481.646545 749.275940,484.689240 
	C745.611877,485.601044 743.889099,484.745483 743.928955,480.761963 
	C743.997131,473.936737 743.918640,467.109314 743.836670,460.283630 
	C743.798584,457.108826 745.142761,455.645844 748.402649,456.058777 
	C758.696899,457.362885 768.976562,457.119141 779.675171,455.643921 
z"/>
<path fill="#000000" opacity="1.000000" stroke="none" 
	d="
M752.152832,501.623657 
	C755.604004,502.931763 759.166443,502.127930 762.850281,504.410431 
	C757.670105,509.443939 752.213440,512.802490 745.670349,514.488403 
	C744.201111,511.775848 744.722595,509.408936 744.696350,507.136902 
	C744.616089,500.199829 744.837891,500.062073 752.152832,501.623657 
z"/>
<path fill="#000000" opacity="1.000000" stroke="none" 
	d="
M694.982361,447.963043 
	C694.076538,446.964355 693.369812,446.250763 692.780945,445.450531 
	C692.512695,445.086060 692.477051,444.550415 692.238647,443.776764 
	C695.010010,442.291992 698.549072,439.825562 700.766235,441.916504 
	C703.380310,444.381714 701.813293,448.623047 701.115784,452.205322 
	C698.118958,451.898468 696.980530,449.617340 694.982361,447.963043 
z"/>
<path fill="#000000" opacity="1.000000" stroke="none" 
	d="
M483.993774,793.186401 
	C487.352722,798.260925 486.997925,803.018188 483.606445,807.333252 
	C480.351868,811.474304 475.848358,811.911987 470.969421,810.600403 
	C468.596466,809.962463 467.747314,808.764404 468.190552,806.282227 
	C468.945831,802.052246 469.584351,797.790710 470.014435,793.516541 
	C470.470367,788.985718 472.807953,788.016357 476.810425,789.277832 
	C479.352814,790.079102 481.928986,790.724121 483.993774,793.186401 
z"/>
<path fill="#000000" opacity="1.000000" stroke="none" 
	d="
M598.070679,803.275574 
	C595.812683,804.466919 593.820679,805.216736 591.634949,805.445984 
	C589.695984,805.649353 588.415588,804.970886 587.912720,803.031921 
	C586.500000,797.585449 585.151184,792.121460 583.652771,786.698730 
	C582.925476,784.066589 583.832581,782.713440 586.353394,781.878601 
	C592.915527,779.705322 597.588989,781.062073 600.608704,786.211365 
	C604.514954,792.872375 603.812317,798.277588 598.070679,803.275574 
z"/>
<path fill="#000000" opacity="1.000000" stroke="none" 
	d="
M528.294373,811.383423 
	C529.853943,807.016968 530.005615,802.595459 532.675842,798.224304 
	C536.478699,805.028259 539.444580,811.507874 541.755249,818.916565 
	C536.515015,819.382690 531.954224,819.788330 527.361633,820.196838 
	C525.692810,816.940796 527.912048,814.449768 528.294373,811.383423 
z"/>
</svg>